# xmcd
#
# Track frame offsets:
#	150
#	13880
#	27440
#	44164
#	57837
#	71605
#	88547
#	106280
#	120510
#	136840
#	153255
#	166985
#	180547
#	197272
#	210944
#	224712
#	241585
#	259317
#	273545
#	289877
#
# Disc length: 4086 seconds
#
# Revision: 1
# Processed by: cddbd v1.5.2PL0 Copyright (c) Steve Scherf et al.
# Submitted via: audiograbber 1.83.01
#
DISCID=210ff414
DTITLE=Various Artist - THC9911
DYEAR=1900
DGENRE=Karaoke
TTITLE0=vocal - vocal
TTITLE1=vocal - vocal
TTITLE2=vocal - vocal
TTITLE3=vocal - vocal
TTITLE4=vocal - vocal
TTITLE5=vocal - vocal
TTITLE6=vocal - vocal
TTITLE7=vocal - vocal
TTITLE8=vocal - vocal
TTITLE9=vocal - vocal
TTITLE10=McBride, Martina - I Love You
TTITLE11=Strait, George - What Do You Say To That
TTITLE12=Brooks and Dunn - Missing You
TTITLE13=Yankee Grey - All Things Considered
TTITLE14=Minor, Shane - Ordinary Love
TTITLE15=Herndon, Ty - Steam
TTITLE16=McAnally, Shane - Are Your Eyes Still Blue?
TTITLE17=Raye, Collin - Start Over Georgia
TTITLE18=Walker, Clay - Live, Laugh, Love
TTITLE19=Travis, Randy - A Man Ain't Made of Stone
EXTD=accurate info
EXTT0=
EXTT1=
EXTT2=
EXTT3=
EXTT4=
EXTT5=
EXTT6=
EXTT7=
EXTT8=
EXTT9=
EXTT10=
EXTT11=
EXTT12=
EXTT13=
EXTT14=
EXTT15=
EXTT16=
EXTT17=
EXTT18=
EXTT19=
PLAYORDER=
